<svg width="116" height="50" viewBox="0 0 116 50" fill="none" xmlns="http://www.w3.org/2000/svg">
<path d="M80.0716 8.624L77.5436 8.608C76.4876 8.608 75.6503 8.61333 75.0316 8.624V10.656C75.0316 11.0507 75.053 11.6267 75.0956 12.384C75.149 13.1413 75.2076 13.6427 75.2716 13.888V14H73.1436V13.888C73.3036 13.2693 73.3836 12.1867 73.3836 10.64V6.16C73.3836 4.61333 73.3036 3.53067 73.1436 2.912V2.8H75.2716V2.912C75.2076 3.15733 75.149 3.664 75.0956 4.432C75.053 5.18933 75.0316 5.76533 75.0316 6.16V7.616H80.0716V6.16C80.0716 5.76533 80.045 5.18933 79.9916 4.432C79.949 3.664 79.8956 3.15733 79.8316 2.912V2.8H81.9596V2.912C81.7996 3.53067 81.7196 4.61333 81.7196 6.16V10.64C81.7196 12.1867 81.7996 13.2693 81.9596 13.888V14H79.8316V13.888C79.8956 13.6427 79.949 13.1413 79.9916 12.384C80.045 11.6267 80.0716 11.0507 80.0716 10.656V8.624ZM89.1112 10.8C88.6739 10.64 88.1672 10.56 87.5912 10.56C87.0259 10.56 86.6152 10.6507 86.3592 10.832C86.1992 11.0773 86.1192 11.408 86.1192 11.824C86.1192 12.2293 86.2312 12.5493 86.4552 12.784C86.6792 13.0187 86.9566 13.136 87.2872 13.136C87.6286 13.136 87.9752 13.0507 88.3272 12.88C88.6792 12.6987 88.9406 12.5067 89.1112 12.304V10.8ZM89.3672 13.104C88.7166 13.8187 87.9806 14.176 87.1592 14.176C86.3486 14.176 85.7086 14 85.2392 13.648C84.7806 13.296 84.5512 12.7307 84.5512 11.952C84.5512 11.1627 84.8232 10.5973 85.3672 10.256C85.9219 9.91467 86.7006 9.744 87.7032 9.744L89.1112 9.792V8.88C89.1112 8.31467 88.9726 7.856 88.6952 7.504C88.4179 7.152 87.9966 6.976 87.4312 6.976C87.0152 6.98667 86.3486 7.38667 85.4312 8.176C85.1219 7.78133 84.9032 7.26933 84.7752 6.64C85.8312 6.29867 86.8019 6.128 87.6872 6.128C88.5726 6.128 89.2819 6.35733 89.8152 6.816C90.3486 7.27467 90.6152 7.92533 90.6152 8.768V11.456C90.6259 11.936 90.7006 12.384 90.8392 12.8C90.9886 13.2053 91.1806 13.488 91.4152 13.648L91.4472 13.808L89.7352 14.224C89.5966 13.8827 89.4739 13.5093 89.3672 13.104ZM95.5797 7.216C95.2277 7.42933 94.9504 7.80267 94.7477 8.336C94.5451 8.85867 94.4437 9.488 94.4437 10.224C94.4437 10.9493 94.5877 11.584 94.8757 12.128C95.1744 12.672 95.6437 12.944 96.2837 12.944C96.7104 12.944 97.2064 12.848 97.7717 12.656C98.3371 12.4533 98.7104 12.2827 98.8917 12.144L99.2917 12.768C97.9264 13.7067 96.8917 14.176 96.1877 14.176C95.1211 14.176 94.2784 13.8133 93.6597 13.088C93.0517 12.3627 92.7477 11.4133 92.7477 10.24C92.7477 9.06667 93.1424 8.08533 93.9317 7.296C94.7317 6.50667 95.6384 6.112 96.6517 6.112C97.6757 6.112 98.5237 6.34133 99.1957 6.8C98.7797 7.46133 98.5077 7.86133 98.3797 8C97.6544 7.44533 96.9611 7.168 96.2997 7.168C96.0544 7.168 95.8144 7.184 95.5797 7.216ZM103.333 14H101.301V13.808C101.483 13.2747 101.573 12.432 101.573 11.28V4.608C101.573 3.75467 101.328 3.09333 100.837 2.624V2.432L103.029 2.048L103.125 2.208C103.093 2.51733 103.077 2.96 103.077 3.536V9.168L105.797 6.896C106.096 6.65067 106.245 6.45867 106.245 6.32H108.085V6.512C107.883 6.53333 107.381 6.864 106.581 7.504L104.309 9.456L106.309 11.6C107.045 12.4107 107.573 12.9547 107.893 13.232C108.213 13.5093 108.523 13.7013 108.821 13.808V14H106.437C106.437 13.9787 105.317 12.6347 103.077 9.968V11.28C103.077 12.464 103.163 13.3067 103.333 13.808V14ZM91.2488 27.8C90.8114 27.64 90.3048 27.56 89.7288 27.56C89.1634 27.56 88.7528 27.6507 88.4968 27.832C88.3368 28.0773 88.2568 28.408 88.2568 28.824C88.2568 29.2293 88.3688 29.5493 88.5928 29.784C88.8168 30.0187 89.0941 30.136 89.4248 30.136C89.7661 30.136 90.1128 30.0507 90.4648 29.88C90.8168 29.6987 91.0781 29.5067 91.2488 29.304V27.8ZM91.5048 30.104C90.8541 30.8187 90.1181 31.176 89.2968 31.176C88.4861 31.176 87.8461 31 87.3768 30.648C86.9181 30.296 86.6888 29.7307 86.6888 28.952C86.6888 28.1627 86.9608 27.5973 87.5048 27.256C88.0594 26.9147 88.8381 26.744 89.8408 26.744L91.2488 26.792V25.88C91.2488 25.3147 91.1101 24.856 90.8328 24.504C90.5554 24.152 90.1341 23.976 89.5688 23.976C89.1528 23.9867 88.4861 24.3867 87.5688 25.176C87.2594 24.7813 87.0408 24.2693 86.9128 23.64C87.9688 23.2987 88.9394 23.128 89.8248 23.128C90.7101 23.128 91.4194 23.3573 91.9528 23.816C92.4861 24.2747 92.7528 24.9253 92.7528 25.768V28.456C92.7634 28.936 92.8381 29.384 92.9768 29.8C93.1261 30.2053 93.3181 30.488 93.5528 30.648L93.5848 30.808L91.8728 31.224C91.7341 30.8827 91.6114 30.5093 91.5048 30.104ZM66.7557 41.136C66.5637 41.328 66.4677 41.5947 66.4677 41.936C66.4677 42.2667 66.5744 42.528 66.7877 42.72C67.001 42.9013 67.2677 43.0347 67.5877 43.12C67.9184 43.2053 68.2704 43.312 68.6437 43.44C69.017 43.568 69.3637 43.7067 69.6837 43.856C70.0144 43.9947 70.2864 44.224 70.4997 44.544C70.713 44.864 70.8197 45.2533 70.8197 45.712C70.8197 46.5227 70.521 47.136 69.9237 47.552C69.3264 47.968 68.537 48.176 67.5557 48.176C66.585 48.176 65.721 47.9253 64.9637 47.424C64.9957 46.88 65.1557 46.3947 65.4437 45.968C66.4037 46.8427 67.2784 47.28 68.0677 47.28C68.409 47.28 68.713 47.2107 68.9797 47.072C69.2357 46.848 69.3637 46.5493 69.3637 46.176C69.3637 45.792 69.2144 45.4987 68.9157 45.296C68.6277 45.0827 68.2757 44.9173 67.8597 44.8C67.4437 44.6827 67.0277 44.5493 66.6117 44.4C66.1957 44.2507 65.8384 44.016 65.5397 43.696C65.2517 43.376 65.1077 42.96 65.1077 42.448C65.1077 41.7013 65.385 41.1307 65.9397 40.736C66.505 40.3307 67.2144 40.128 68.0677 40.128C68.921 40.128 69.7584 40.3093 70.5797 40.672C70.4837 41.1413 70.297 41.6107 70.0197 42.08C69.2624 41.3227 68.473 40.944 67.6517 40.944C67.2997 40.944 67.001 41.008 66.7557 41.136ZM75.9298 48.176C74.8098 48.176 73.9351 47.8293 73.3058 47.136C72.6765 46.4427 72.3618 45.5307 72.3618 44.4C72.3618 43.2587 72.7138 42.2613 73.4178 41.408C74.1218 40.5547 74.9965 40.128 76.0418 40.128C77.9511 40.128 78.9058 41.3067 78.9058 43.664L78.3138 44.24H74.0578C74.0578 45.136 74.2498 45.808 74.6338 46.256C75.0178 46.704 75.5351 46.928 76.1858 46.928C76.4418 46.928 76.8045 46.8533 77.2738 46.704C77.7431 46.544 78.1591 46.3573 78.5218 46.144L78.9218 46.752C78.7191 46.9547 78.2765 47.2427 77.5938 47.616C76.9218 47.9893 76.3671 48.176 75.9298 48.176ZM75.7538 40.928C75.3058 40.928 74.9591 41.0293 74.7138 41.232C74.5111 41.5093 74.3511 41.8613 74.2338 42.288C74.1165 42.7147 74.0578 43.088 74.0578 43.408L77.3378 43.28C77.3378 41.712 76.8098 40.928 75.7538 40.928ZM83.2501 41.216C82.8981 41.4293 82.6207 41.8027 82.4181 42.336C82.2154 42.8587 82.1141 43.488 82.1141 44.224C82.1141 44.9493 82.2581 45.584 82.5461 46.128C82.8447 46.672 83.3141 46.944 83.9541 46.944C84.3807 46.944 84.8767 46.848 85.4421 46.656C86.0074 46.4533 86.3807 46.2827 86.5621 46.144L86.9621 46.768C85.5967 47.7067 84.5621 48.176 83.8581 48.176C82.7914 48.176 81.9487 47.8133 81.3301 47.088C80.7221 46.3627 80.4181 45.4133 80.4181 44.24C80.4181 43.0667 80.8127 42.0853 81.6021 41.296C82.4021 40.5067 83.3087 40.112 84.3221 40.112C85.3461 40.112 86.1941 40.3413 86.8661 40.8C86.4501 41.4613 86.1781 41.8613 86.0501 42C85.3247 41.4453 84.6314 41.168 83.9701 41.168C83.7247 41.168 83.4847 41.184 83.2501 41.216ZM92.0438 48.192C90.9238 48.192 90.0385 47.84 89.3878 47.136C88.7371 46.4213 88.4118 45.4933 88.4118 44.352C88.4118 43.2 88.7905 42.208 89.5478 41.376C90.3051 40.544 91.2545 40.128 92.3958 40.128C93.5478 40.128 94.4331 40.4747 95.0518 41.168C95.6811 41.8613 95.9958 42.7893 95.9958 43.952C95.9958 45.1147 95.6171 46.112 94.8598 46.944C94.1025 47.776 93.1638 48.192 92.0438 48.192ZM94.2998 44.352C94.2998 43.296 94.1345 42.48 93.8038 41.904C93.4731 41.328 92.8865 41.04 92.0438 41.04C91.4998 41.04 91.0731 41.1573 90.7638 41.392C90.5718 41.6373 90.4118 42.0107 90.2838 42.512C90.1665 43.0133 90.1078 43.4933 90.1078 43.952C90.1078 46.1813 90.8971 47.296 92.4758 47.296C92.9665 47.296 93.3665 47.184 93.6758 46.96C93.8785 46.7147 94.0331 46.336 94.1398 45.824C94.2465 45.312 94.2998 44.8213 94.2998 44.352ZM102.746 40.128C103.514 40.128 104.106 40.3733 104.522 40.864C104.949 41.3547 105.162 42.0587 105.162 42.976V45.28C105.162 46.2933 105.322 47.1627 105.642 47.888V48H103.386V47.888C103.568 47.3547 103.658 46.6453 103.658 45.76V43.312C103.658 42.6933 103.562 42.2293 103.37 41.92C103.189 41.6 102.816 41.44 102.25 41.44C101.685 41.44 100.96 41.712 100.074 42.256V45.28C100.074 46.3147 100.229 47.184 100.538 47.888V48H98.2982V47.888C98.4795 47.3547 98.5702 46.6453 98.5702 45.76V43.04C98.5702 42.5813 98.4742 42.1333 98.2822 41.696C98.1009 41.248 97.8875 40.9493 97.6422 40.8L97.6262 40.608L99.7222 40.112L99.8182 40.272C99.9035 40.6667 99.9675 41.0667 100.01 41.472C100.405 41.1627 100.709 40.9333 100.922 40.784C101.146 40.6347 101.429 40.4907 101.77 40.352C102.112 40.2027 102.437 40.128 102.746 40.128ZM110.76 48.176C109.65 48.176 108.824 47.8027 108.28 47.056C107.736 46.2987 107.464 45.3493 107.464 44.208C107.464 43.0667 107.81 42.1013 108.504 41.312C109.208 40.5227 110.093 40.128 111.16 40.128C111.757 40.128 112.349 40.2293 112.936 40.432V38.608C112.936 37.7547 112.69 37.0933 112.2 36.624V36.432L114.392 36.048L114.488 36.208C114.456 36.5173 114.44 36.96 114.44 37.536V45.456C114.44 45.936 114.514 46.3947 114.664 46.832C114.813 47.2587 115.005 47.552 115.24 47.712L115.272 47.872L113.528 48.288C113.421 48.0213 113.288 47.584 113.128 46.976C112.306 47.776 111.517 48.176 110.76 48.176ZM110.008 46.512C110.317 46.832 110.738 46.992 111.272 46.992C111.805 46.992 112.36 46.736 112.936 46.224V41.712C112.381 41.3067 111.688 41.104 110.856 41.104C110.376 41.104 110.008 41.2 109.752 41.392C109.357 42.0213 109.16 42.8907 109.16 44C109.16 45.1093 109.442 45.9467 110.008 46.512Z" fill="url(#paint0_linear_6957_40618)"/>
<path fill-rule="evenodd" clip-rule="evenodd" d="M9.4859 5.39614C13.9019 1.90139 19.3685 0 25 0H27V13H23V4.99335C19.1879 5.37439 15.5487 6.83885 12.5227 9.23352C8.97114 12.0442 6.47256 15.9717 5.43177 20.3796C4.39098 24.7876 4.86895 29.4179 6.78826 33.5203C8.70756 37.6227 11.9558 40.957 16.0066 42.9829C20.0575 45.0087 24.6737 45.6076 29.1074 44.6824C33.541 43.7571 37.5325 41.3621 40.435 37.8851C43.3375 34.4082 44.9811 30.0532 45.0995 25.5255C45.2179 20.9979 43.8041 16.5629 41.0873 12.9391L45.0027 10.0036C48.3808 14.5094 50.1387 20.0238 49.9915 25.6534C49.8443 31.2831 47.8007 36.6981 44.1917 41.0212C40.5827 45.3444 35.6198 48.3224 30.107 49.4728C24.5942 50.6232 18.8545 49.8786 13.8177 47.3597C8.78093 44.8407 4.74216 40.695 2.35571 35.5941C-0.0307283 30.4932 -0.625037 24.7359 0.669071 19.2551C1.96318 13.7743 5.06989 8.89089 9.4859 5.39614Z" fill="url(#paint1_linear_6957_40618)"/>
<path fill-rule="evenodd" clip-rule="evenodd" d="M40.9496 2.28429e-05L43 1.99999L43 2L26.6318 29.5357L26.4787 29.4447L26.4655 29.4666L24.0851 28.0219L23 27.3768L23.0058 27.3668L19.6265 25.3159L21.6389 22L24.9632 24.0176L36.6622 4.00002H33V2.28281e-05L38.9999 2.29756e-05L39 -1.92405e-06L39 2.29357e-05L40.9496 2.28429e-05Z" fill="url(#paint2_linear_6957_40618)"/>
<defs>
<linearGradient id="paint0_linear_6957_40618" x1="90" y1="2" x2="90" y2="49" gradientUnits="userSpaceOnUse">
<stop stop-color="#546659"/>
<stop offset="1" stop-color="#73E192" stop-opacity="0.17"/>
</linearGradient>
<linearGradient id="paint1_linear_6957_40618" x1="25" y1="0" x2="25" y2="50" gradientUnits="userSpaceOnUse">
<stop stop-color="#546659"/>
<stop offset="1" stop-color="#73E192" stop-opacity="0.17"/>
</linearGradient>
<linearGradient id="paint2_linear_6957_40618" x1="31.3132" y1="0" x2="31.3132" y2="29.5357" gradientUnits="userSpaceOnUse">
<stop stop-color="#546659"/>
<stop offset="1" stop-color="#73E192" stop-opacity="0.17"/>
</linearGradient>
</defs>
</svg>
