<svg width="318" height="50" viewBox="0 0 318 50" fill="none" xmlns="http://www.w3.org/2000/svg">
<path d="M81.6658 25.56L75.3458 25.52C72.7058 25.52 70.6125 25.5333 69.0658 25.56V30.64C69.0658 31.6267 69.1191 33.0667 69.2258 34.96C69.3591 36.8533 69.5058 38.1067 69.6658 38.72V39H64.3458V38.72C64.7458 37.1733 64.9458 34.4667 64.9458 30.6V19.4C64.9458 15.5333 64.7458 12.8267 64.3458 11.28V11H69.6658V11.28C69.5058 11.8933 69.3591 13.16 69.2258 15.08C69.1191 16.9733 69.0658 18.4133 69.0658 19.4V23.04H81.6658V19.4C81.6658 18.4133 81.5991 16.9733 81.4658 15.08C81.3591 13.16 81.2258 11.8933 81.0658 11.28V11H86.3858V11.28C85.9858 12.8267 85.7858 15.5333 85.7858 19.4V30.6C85.7858 34.4667 85.9858 37.1733 86.3858 38.72V39H81.0658V38.72C81.2258 38.1067 81.3591 36.8533 81.4658 34.96C81.5991 33.0667 81.6658 31.6267 81.6658 30.64V25.56ZM104.04 31C102.947 30.6 101.68 30.4 100.24 30.4C98.8265 30.4 97.7998 30.6267 97.1598 31.08C96.7598 31.6933 96.5598 32.52 96.5598 33.56C96.5598 34.5733 96.8398 35.3733 97.3998 35.96C97.9598 36.5467 98.6532 36.84 99.4798 36.84C100.333 36.84 101.2 36.6267 102.08 36.2C102.96 35.7467 103.613 35.2667 104.04 34.76V31ZM104.68 36.76C103.053 38.5467 101.213 39.44 99.1598 39.44C97.1332 39.44 95.5332 39 94.3598 38.12C93.2132 37.24 92.6398 35.8267 92.6398 33.88C92.6398 31.9067 93.3198 30.4933 94.6798 29.64C96.0665 28.7867 98.0132 28.36 100.52 28.36L104.04 28.48V26.2C104.04 24.7867 103.693 23.64 103 22.76C102.307 21.88 101.253 21.44 99.8398 21.44C98.7998 21.4667 97.1332 22.4667 94.8398 24.44C94.0665 23.4533 93.5198 22.1733 93.1998 20.6C95.8398 19.7467 98.2665 19.32 100.48 19.32C102.693 19.32 104.467 19.8933 105.8 21.04C107.133 22.1867 107.8 23.8133 107.8 25.92V32.64C107.827 33.84 108.013 34.96 108.36 36C108.733 37.0133 109.213 37.72 109.8 38.12L109.88 38.52L105.6 39.56C105.253 38.7067 104.947 37.7733 104.68 36.76ZM119.986 22.04C119.106 22.5733 118.413 23.5067 117.906 24.84C117.399 26.1467 117.146 27.72 117.146 29.56C117.146 31.3733 117.506 32.96 118.226 34.32C118.973 35.68 120.146 36.36 121.746 36.36C122.813 36.36 124.053 36.12 125.466 35.64C126.879 35.1333 127.813 34.7067 128.266 34.36L129.266 35.92C125.853 38.2667 123.266 39.44 121.506 39.44C118.839 39.44 116.733 38.5333 115.186 36.72C113.666 34.9067 112.906 32.5333 112.906 29.6C112.906 26.6667 113.893 24.2133 115.866 22.24C117.866 20.2667 120.133 19.28 122.666 19.28C125.226 19.28 127.346 19.8533 129.026 21C127.986 22.6533 127.306 23.6533 126.986 24C125.173 22.6133 123.439 21.92 121.786 21.92C121.173 21.92 120.573 21.96 119.986 22.04ZM139.145 39H134.065V38.52C134.519 37.1867 134.745 35.08 134.745 32.2V15.52C134.745 13.3867 134.132 11.7333 132.905 10.56V10.08L138.385 9.12L138.625 9.52C138.545 10.2933 138.505 11.4 138.505 12.84V26.92L145.305 21.24C146.052 20.6267 146.425 20.1467 146.425 19.8H151.025V20.28C150.519 20.3333 149.265 21.16 147.265 22.76L141.585 27.64L146.585 33C148.425 35.0267 149.745 36.3867 150.545 37.08C151.345 37.7733 152.119 38.2533 152.865 38.52V39H146.905C146.905 38.9467 144.105 35.5867 138.505 28.92V32.2C138.505 35.16 138.719 37.2667 139.145 38.52V39ZM174.757 31C173.664 30.6 172.397 30.4 170.957 30.4C169.544 30.4 168.517 30.6267 167.877 31.08C167.477 31.6933 167.277 32.52 167.277 33.56C167.277 34.5733 167.557 35.3733 168.117 35.96C168.677 36.5467 169.37 36.84 170.197 36.84C171.05 36.84 171.917 36.6267 172.797 36.2C173.677 35.7467 174.33 35.2667 174.757 34.76V31ZM175.397 36.76C173.77 38.5467 171.93 39.44 169.877 39.44C167.85 39.44 166.25 39 165.077 38.12C163.93 37.24 163.357 35.8267 163.357 33.88C163.357 31.9067 164.037 30.4933 165.397 29.64C166.784 28.7867 168.73 28.36 171.237 28.36L174.757 28.48V26.2C174.757 24.7867 174.41 23.64 173.717 22.76C173.024 21.88 171.97 21.44 170.557 21.44C169.517 21.4667 167.85 22.4667 165.557 24.44C164.784 23.4533 164.237 22.1733 163.917 20.6C166.557 19.7467 168.984 19.32 171.197 19.32C173.41 19.32 175.184 19.8933 176.517 21.04C177.85 22.1867 178.517 23.8133 178.517 25.92V32.64C178.544 33.84 178.73 34.96 179.077 36C179.45 37.0133 179.93 37.72 180.517 38.12L180.597 38.52L176.317 39.56C175.97 38.7067 175.664 37.7733 175.397 36.76ZM197.438 21.84C196.958 22.32 196.718 22.9867 196.718 23.84C196.718 24.6667 196.984 25.32 197.518 25.8C198.051 26.2533 198.718 26.5867 199.518 26.8C200.344 27.0133 201.224 27.28 202.158 27.6C203.091 27.92 203.958 28.2667 204.758 28.64C205.584 28.9867 206.264 29.56 206.798 30.36C207.331 31.16 207.598 32.1333 207.598 33.28C207.598 35.3067 206.851 36.84 205.358 37.88C203.864 38.92 201.891 39.44 199.438 39.44C197.011 39.44 194.851 38.8133 192.958 37.56C193.038 36.2 193.438 34.9867 194.158 33.92C196.558 36.1067 198.744 37.2 200.718 37.2C201.571 37.2 202.331 37.0267 202.998 36.68C203.638 36.12 203.958 35.3733 203.958 34.44C203.958 33.48 203.584 32.7467 202.838 32.24C202.118 31.7067 201.238 31.2933 200.198 31C199.158 30.7067 198.118 30.3733 197.078 30C196.038 29.6267 195.144 29.04 194.398 28.24C193.678 27.44 193.318 26.4 193.318 25.12C193.318 23.2533 194.011 21.8267 195.398 20.84C196.811 19.8267 198.584 19.32 200.718 19.32C202.851 19.32 204.944 19.7733 206.998 20.68C206.758 21.8533 206.291 23.0267 205.598 24.2C203.704 22.3067 201.731 21.36 199.678 21.36C198.798 21.36 198.051 21.52 197.438 21.84ZM220.148 39.44C217.348 39.44 215.161 38.5733 213.588 36.84C212.015 35.1067 211.228 32.8267 211.228 30C211.228 27.1467 212.108 24.6533 213.868 22.52C215.628 20.3867 217.815 19.32 220.428 19.32C225.201 19.32 227.588 22.2667 227.588 28.16L226.108 29.6H215.468C215.468 31.84 215.948 33.52 216.908 34.64C217.868 35.76 219.161 36.32 220.788 36.32C221.428 36.32 222.335 36.1333 223.508 35.76C224.681 35.36 225.721 34.8933 226.628 34.36L227.628 35.88C227.121 36.3867 226.015 37.1067 224.308 38.04C222.628 38.9733 221.241 39.44 220.148 39.44ZM219.708 21.32C218.588 21.32 217.721 21.5733 217.108 22.08C216.601 22.7733 216.201 23.6533 215.908 24.72C215.615 25.7867 215.468 26.72 215.468 27.52L223.668 27.2C223.668 23.28 222.348 21.32 219.708 21.32ZM238.224 22.04C237.344 22.5733 236.65 23.5067 236.144 24.84C235.637 26.1467 235.384 27.72 235.384 29.56C235.384 31.3733 235.744 32.96 236.464 34.32C237.21 35.68 238.384 36.36 239.984 36.36C241.05 36.36 242.29 36.12 243.704 35.64C245.117 35.1333 246.05 34.7067 246.504 34.36L247.504 35.92C244.09 38.2667 241.504 39.44 239.744 39.44C237.077 39.44 234.97 38.5333 233.424 36.72C231.904 34.9067 231.144 32.5333 231.144 29.6C231.144 26.6667 232.13 24.2133 234.104 22.24C236.104 20.2667 238.37 19.28 240.904 19.28C243.464 19.28 245.584 19.8533 247.264 21C246.224 22.6533 245.544 23.6533 245.224 24C243.41 22.6133 241.677 21.92 240.024 21.92C239.41 21.92 238.81 21.96 238.224 22.04ZM259.983 39.48C257.183 39.48 254.97 38.6 253.343 36.84C251.716 35.0533 250.903 32.7333 250.903 29.88C250.903 27 251.85 24.52 253.743 22.44C255.636 20.36 258.01 19.32 260.863 19.32C263.743 19.32 265.956 20.1867 267.503 21.92C269.076 23.6533 269.863 25.9733 269.863 28.88C269.863 31.7867 268.916 34.28 267.023 36.36C265.13 38.44 262.783 39.48 259.983 39.48ZM265.623 29.88C265.623 27.24 265.21 25.2 264.383 23.76C263.556 22.32 262.09 21.6 259.983 21.6C258.623 21.6 257.556 21.8933 256.783 22.48C256.303 23.0933 255.903 24.0267 255.583 25.28C255.29 26.5333 255.143 27.7333 255.143 28.88C255.143 34.4533 257.116 37.24 261.063 37.24C262.29 37.24 263.29 36.96 264.063 36.4C264.57 35.7867 264.956 34.84 265.223 33.56C265.49 32.28 265.623 31.0533 265.623 29.88ZM286.514 19.32C288.434 19.32 289.914 19.9333 290.954 21.16C292.021 22.3867 292.554 24.1467 292.554 26.44V32.2C292.554 34.7333 292.954 36.9067 293.754 38.72V39H288.114V38.72C288.567 37.3867 288.794 35.6133 288.794 33.4V27.28C288.794 25.7333 288.554 24.5733 288.074 23.8C287.621 23 286.687 22.6 285.274 22.6C283.861 22.6 282.047 23.28 279.834 24.64V32.2C279.834 34.7867 280.221 36.96 280.994 38.72V39H275.394V38.72C275.847 37.3867 276.074 35.6133 276.074 33.4V26.6C276.074 25.4533 275.834 24.3333 275.354 23.24C274.901 22.12 274.367 21.3733 273.754 21L273.714 20.52L278.954 19.28L279.194 19.68C279.407 20.6667 279.567 21.6667 279.674 22.68C280.661 21.9067 281.421 21.3333 281.954 20.96C282.514 20.5867 283.221 20.2267 284.074 19.88C284.927 19.5067 285.741 19.32 286.514 19.32ZM306.323 39.44C303.549 39.44 301.483 38.5067 300.123 36.64C298.763 34.7467 298.083 32.3733 298.083 29.52C298.083 26.6667 298.949 24.2533 300.683 22.28C302.443 20.3067 304.656 19.32 307.323 19.32C308.816 19.32 310.296 19.5733 311.763 20.08V15.52C311.763 13.3867 311.149 11.7333 309.923 10.56V10.08L315.403 9.12L315.643 9.52C315.563 10.2933 315.523 11.4 315.523 12.84V32.64C315.523 33.84 315.709 34.9867 316.083 36.08C316.456 37.1467 316.936 37.88 317.523 38.28L317.603 38.68L313.243 39.72C312.976 39.0533 312.643 37.96 312.243 36.44C310.189 38.44 308.216 39.44 306.323 39.44ZM304.443 35.28C305.216 36.08 306.269 36.48 307.603 36.48C308.936 36.48 310.323 35.84 311.763 34.56V23.28C310.376 22.2667 308.643 21.76 306.563 21.76C305.363 21.76 304.443 22 303.803 22.48C302.816 24.0533 302.323 26.2267 302.323 29C302.323 31.7733 303.029 33.8667 304.443 35.28Z" fill="#546659"/>
<path fill-rule="evenodd" clip-rule="evenodd" d="M9.4859 5.39614C13.9019 1.90139 19.3685 0 25 0H27V13H23V4.99335C19.1879 5.37439 15.5487 6.83885 12.5227 9.23352C8.97114 12.0442 6.47256 15.9717 5.43177 20.3796C4.39098 24.7876 4.86895 29.4179 6.78826 33.5203C8.70756 37.6227 11.9558 40.957 16.0066 42.9829C20.0575 45.0087 24.6737 45.6076 29.1074 44.6824C33.541 43.7571 37.5325 41.3621 40.435 37.8851C43.3375 34.4082 44.9811 30.0532 45.0995 25.5255C45.2179 20.9979 43.8041 16.5629 41.0873 12.9391L45.0027 10.0036C48.3808 14.5094 50.1387 20.0238 49.9915 25.6534C49.8443 31.2831 47.8007 36.6981 44.1917 41.0212C40.5827 45.3444 35.6198 48.3224 30.107 49.4728C24.5942 50.6232 18.8545 49.8786 13.8177 47.3597C8.78093 44.8407 4.74216 40.695 2.35571 35.5941C-0.0307283 30.4932 -0.625037 24.7359 0.669071 19.2551C1.96318 13.7743 5.06989 8.89089 9.4859 5.39614Z" fill="#546659"/>
<path fill-rule="evenodd" clip-rule="evenodd" d="M40.9496 2.28429e-05L43 1.99999L43 2L26.6318 29.5357L26.4787 29.4447L26.4655 29.4666L24.0851 28.0219L23 27.3768L23.0058 27.3668L19.6265 25.3159L21.6389 22L24.9632 24.0176L36.6622 4.00002H33V2.28281e-05L38.9999 2.29756e-05L39 -1.92405e-06L39 2.29357e-05L40.9496 2.28429e-05Z" fill="#546659"/>
</svg>
