<svg width="105" height="50" viewBox="0 0 105 50" fill="none" xmlns="http://www.w3.org/2000/svg">
<path d="M77.9975 11.968L76.1015 11.956C75.3095 11.956 74.6815 11.96 74.2175 11.968V13.492C74.2175 13.788 74.2335 14.22 74.2655 14.788C74.3055 15.356 74.3495 15.732 74.3975 15.916V16H72.8015V15.916C72.9215 15.452 72.9815 14.64 72.9815 13.48V10.12C72.9815 8.96 72.9215 8.148 72.8015 7.684V7.6H74.3975V7.684C74.3495 7.868 74.3055 8.248 74.2655 8.824C74.2335 9.392 74.2175 9.824 74.2175 10.12V11.212H77.9975V10.12C77.9975 9.824 77.9775 9.392 77.9375 8.824C77.9055 8.248 77.8655 7.868 77.8175 7.684V7.6H79.4135V7.684C79.2935 8.148 79.2335 8.96 79.2335 10.12V13.48C79.2335 14.64 79.2935 15.452 79.4135 15.916V16H77.8175V15.916C77.8655 15.732 77.9055 15.356 77.9375 14.788C77.9775 14.22 77.9975 13.788 77.9975 13.492V11.968ZM84.8147 13.6C84.4867 13.48 84.1067 13.42 83.6747 13.42C83.2507 13.42 82.9427 13.488 82.7507 13.624C82.6307 13.808 82.5707 14.056 82.5707 14.368C82.5707 14.672 82.6547 14.912 82.8227 15.088C82.9907 15.264 83.1987 15.352 83.4467 15.352C83.7027 15.352 83.9627 15.288 84.2267 15.16C84.4907 15.024 84.6867 14.88 84.8147 14.728V13.6ZM85.0067 15.328C84.5187 15.864 83.9667 16.132 83.3507 16.132C82.7427 16.132 82.2627 16 81.9107 15.736C81.5667 15.472 81.3947 15.048 81.3947 14.464C81.3947 13.872 81.5987 13.448 82.0067 13.192C82.4227 12.936 83.0067 12.808 83.7587 12.808L84.8147 12.844V12.16C84.8147 11.736 84.7107 11.392 84.5027 11.128C84.2947 10.864 83.9787 10.732 83.5547 10.732C83.2427 10.74 82.7427 11.04 82.0547 11.632C81.8227 11.336 81.6587 10.952 81.5627 10.48C82.3547 10.224 83.0827 10.096 83.7467 10.096C84.4107 10.096 84.9427 10.268 85.3427 10.612C85.7427 10.956 85.9427 11.444 85.9427 12.076V14.092C85.9507 14.452 86.0067 14.788 86.1107 15.1C86.2227 15.404 86.3667 15.616 86.5427 15.736L86.5667 15.856L85.2827 16.168C85.1787 15.912 85.0867 15.632 85.0067 15.328ZM89.7036 10.912C89.4396 11.072 89.2316 11.352 89.0796 11.752C88.9276 12.144 88.8516 12.616 88.8516 13.168C88.8516 13.712 88.9596 14.188 89.1756 14.596C89.3996 15.004 89.7516 15.208 90.2316 15.208C90.5516 15.208 90.9236 15.136 91.3476 14.992C91.7716 14.84 92.0516 14.712 92.1876 14.608L92.4876 15.076C91.4636 15.78 90.6876 16.132 90.1596 16.132C89.3596 16.132 88.7276 15.86 88.2636 15.316C87.8076 14.772 87.5796 14.06 87.5796 13.18C87.5796 12.3 87.8756 11.564 88.4676 10.972C89.0676 10.38 89.7476 10.084 90.5076 10.084C91.2756 10.084 91.9116 10.256 92.4156 10.6C92.1036 11.096 91.8996 11.396 91.8036 11.5C91.2596 11.084 90.7396 10.876 90.2436 10.876C90.0596 10.876 89.8796 10.888 89.7036 10.912ZM95.5564 16H94.0324V15.856C94.1684 15.456 94.2364 14.824 94.2364 13.96V8.956C94.2364 8.316 94.0524 7.82 93.6844 7.468V7.324L95.3284 7.036L95.4004 7.156C95.3764 7.388 95.3644 7.72 95.3644 8.152V12.376L97.4044 10.672C97.6284 10.488 97.7404 10.344 97.7404 10.24H99.1204V10.384C98.9684 10.4 98.5924 10.648 97.9924 11.128L96.2884 12.592L97.7884 14.2C98.3404 14.808 98.7364 15.216 98.9764 15.424C99.2164 15.632 99.4484 15.776 99.6724 15.856V16H97.8844C97.8844 15.984 97.0444 14.976 95.3644 12.976V13.96C95.3644 14.848 95.4284 15.48 95.5564 15.856V16ZM86.4366 27.6C86.1086 27.48 85.7286 27.42 85.2966 27.42C84.8726 27.42 84.5646 27.488 84.3726 27.624C84.2526 27.808 84.1926 28.056 84.1926 28.368C84.1926 28.672 84.2766 28.912 84.4446 29.088C84.6126 29.264 84.8206 29.352 85.0686 29.352C85.3246 29.352 85.5846 29.288 85.8486 29.16C86.1126 29.024 86.3086 28.88 86.4366 28.728V27.6ZM86.6286 29.328C86.1406 29.864 85.5886 30.132 84.9726 30.132C84.3646 30.132 83.8846 30 83.5326 29.736C83.1886 29.472 83.0166 29.048 83.0166 28.464C83.0166 27.872 83.2206 27.448 83.6286 27.192C84.0446 26.936 84.6286 26.808 85.3806 26.808L86.4366 26.844V26.16C86.4366 25.736 86.3326 25.392 86.1246 25.128C85.9166 24.864 85.6006 24.732 85.1766 24.732C84.8646 24.74 84.3646 25.04 83.6766 25.632C83.4446 25.336 83.2806 24.952 83.1846 24.48C83.9766 24.224 84.7046 24.096 85.3686 24.096C86.0326 24.096 86.5646 24.268 86.9646 24.612C87.3646 24.956 87.5646 25.444 87.5646 26.076V28.092C87.5726 28.452 87.6286 28.788 87.7326 29.1C87.8446 29.404 87.9886 29.616 88.1646 29.736L88.1886 29.856L86.9046 30.168C86.8006 29.912 86.7086 29.632 86.6286 29.328ZM67.973 38.852C67.829 38.996 67.757 39.196 67.757 39.452C67.757 39.7 67.837 39.896 67.997 40.04C68.157 40.176 68.357 40.276 68.597 40.34C68.845 40.404 69.109 40.484 69.389 40.58C69.669 40.676 69.929 40.78 70.169 40.892C70.417 40.996 70.621 41.168 70.781 41.408C70.941 41.648 71.021 41.94 71.021 42.284C71.021 42.892 70.797 43.352 70.349 43.664C69.901 43.976 69.309 44.132 68.573 44.132C67.845 44.132 67.197 43.944 66.629 43.568C66.653 43.16 66.773 42.796 66.989 42.476C67.709 43.132 68.365 43.46 68.957 43.46C69.213 43.46 69.441 43.408 69.641 43.304C69.833 43.136 69.929 42.912 69.929 42.632C69.929 42.344 69.817 42.124 69.593 41.972C69.377 41.812 69.113 41.688 68.801 41.6C68.489 41.512 68.177 41.412 67.865 41.3C67.553 41.188 67.285 41.012 67.061 40.772C66.845 40.532 66.737 40.22 66.737 39.836C66.737 39.276 66.945 38.848 67.361 38.552C67.785 38.248 68.317 38.096 68.957 38.096C69.597 38.096 70.225 38.232 70.841 38.504C70.769 38.856 70.629 39.208 70.421 39.56C69.853 38.992 69.261 38.708 68.645 38.708C68.381 38.708 68.157 38.756 67.973 38.852ZM74.8911 44.132C74.0511 44.132 73.3951 43.872 72.9231 43.352C72.4511 42.832 72.2151 42.148 72.2151 41.3C72.2151 40.444 72.4791 39.696 73.0071 39.056C73.5351 38.416 74.1911 38.096 74.9751 38.096C76.4071 38.096 77.1231 38.98 77.1231 40.748L76.6791 41.18H73.4871C73.4871 41.852 73.6311 42.356 73.9191 42.692C74.2071 43.028 74.5951 43.196 75.0831 43.196C75.2751 43.196 75.5471 43.14 75.8991 43.028C76.2511 42.908 76.5631 42.768 76.8351 42.608L77.1351 43.064C76.9831 43.216 76.6511 43.432 76.1391 43.712C75.6351 43.992 75.2191 44.132 74.8911 44.132ZM74.7591 38.696C74.4231 38.696 74.1631 38.772 73.9791 38.924C73.8271 39.132 73.7071 39.396 73.6191 39.716C73.5311 40.036 73.4871 40.316 73.4871 40.556L75.9471 40.46C75.9471 39.284 75.5511 38.696 74.7591 38.696ZM80.4188 38.912C80.1548 39.072 79.9468 39.352 79.7948 39.752C79.6428 40.144 79.5668 40.616 79.5668 41.168C79.5668 41.712 79.6748 42.188 79.8908 42.596C80.1148 43.004 80.4668 43.208 80.9468 43.208C81.2668 43.208 81.6388 43.136 82.0628 42.992C82.4868 42.84 82.7668 42.712 82.9028 42.608L83.2028 43.076C82.1788 43.78 81.4028 44.132 80.8748 44.132C80.0748 44.132 79.4428 43.86 78.9788 43.316C78.5228 42.772 78.2948 42.06 78.2948 41.18C78.2948 40.3 78.5908 39.564 79.1828 38.972C79.7828 38.38 80.4628 38.084 81.2228 38.084C81.9908 38.084 82.6268 38.256 83.1308 38.6C82.8188 39.096 82.6148 39.396 82.5188 39.5C81.9748 39.084 81.4548 38.876 80.9588 38.876C80.7748 38.876 80.5948 38.888 80.4188 38.912ZM87.0516 44.144C86.2116 44.144 85.5476 43.88 85.0596 43.352C84.5716 42.816 84.3276 42.12 84.3276 41.264C84.3276 40.4 84.6116 39.656 85.1796 39.032C85.7476 38.408 86.4596 38.096 87.3156 38.096C88.1796 38.096 88.8436 38.356 89.3076 38.876C89.7796 39.396 90.0156 40.092 90.0156 40.964C90.0156 41.836 89.7316 42.584 89.1636 43.208C88.5956 43.832 87.8916 44.144 87.0516 44.144ZM88.7436 41.264C88.7436 40.472 88.6196 39.86 88.3716 39.428C88.1236 38.996 87.6836 38.78 87.0516 38.78C86.6436 38.78 86.3236 38.868 86.0916 39.044C85.9476 39.228 85.8276 39.508 85.7316 39.884C85.6436 40.26 85.5996 40.62 85.5996 40.964C85.5996 42.636 86.1916 43.472 87.3756 43.472C87.7436 43.472 88.0436 43.388 88.2756 43.22C88.4276 43.036 88.5436 42.752 88.6236 42.368C88.7036 41.984 88.7436 41.616 88.7436 41.264ZM95.1159 38.096C95.6919 38.096 96.1359 38.28 96.4479 38.648C96.7679 39.016 96.9279 39.544 96.9279 40.232V41.96C96.9279 42.72 97.0479 43.372 97.2879 43.916V44H95.5959V43.916C95.7319 43.516 95.7999 42.984 95.7999 42.32V40.484C95.7999 40.02 95.7279 39.672 95.5839 39.44C95.4479 39.2 95.1679 39.08 94.7439 39.08C94.3199 39.08 93.7759 39.284 93.1119 39.692V41.96C93.1119 42.736 93.2279 43.388 93.4599 43.916V44H91.7799V43.916C91.9159 43.516 91.9839 42.984 91.9839 42.32V40.28C91.9839 39.936 91.9119 39.6 91.7679 39.272C91.6319 38.936 91.4719 38.712 91.2879 38.6L91.2759 38.456L92.8479 38.084L92.9199 38.204C92.9839 38.5 93.0319 38.8 93.0639 39.104C93.3599 38.872 93.5879 38.7 93.7479 38.588C93.9159 38.476 94.1279 38.368 94.3839 38.264C94.6399 38.152 94.8839 38.096 95.1159 38.096ZM101.164 44.132C100.332 44.132 99.7115 43.852 99.3035 43.292C98.8955 42.724 98.6915 42.012 98.6915 41.156C98.6915 40.3 98.9515 39.576 99.4715 38.984C99.9995 38.392 100.664 38.096 101.464 38.096C101.912 38.096 102.356 38.172 102.796 38.324V36.956C102.796 36.316 102.612 35.82 102.244 35.468V35.324L103.888 35.036L103.96 35.156C103.936 35.388 103.924 35.72 103.924 36.152V42.092C103.924 42.452 103.98 42.796 104.092 43.124C104.204 43.444 104.348 43.664 104.524 43.784L104.548 43.904L103.24 44.216C103.16 44.016 103.06 43.688 102.94 43.232C102.324 43.832 101.732 44.132 101.164 44.132ZM100.6 42.884C100.832 43.124 101.148 43.244 101.548 43.244C101.948 43.244 102.364 43.052 102.796 42.668V39.284C102.38 38.98 101.86 38.828 101.236 38.828C100.876 38.828 100.6 38.9 100.408 39.044C100.112 39.516 99.9635 40.168 99.9635 41C99.9635 41.832 100.176 42.46 100.6 42.884Z" fill="#546659"/>
<path fill-rule="evenodd" clip-rule="evenodd" d="M9.4859 5.39614C13.9019 1.90139 19.3685 0 25 0H27V13H23V4.99335C19.1879 5.37439 15.5487 6.83885 12.5227 9.23352C8.97114 12.0442 6.47256 15.9717 5.43177 20.3796C4.39098 24.7876 4.86895 29.4179 6.78826 33.5203C8.70756 37.6227 11.9558 40.957 16.0066 42.9829C20.0575 45.0087 24.6737 45.6076 29.1074 44.6824C33.541 43.7571 37.5325 41.3621 40.435 37.8851C43.3375 34.4082 44.9811 30.0532 45.0995 25.5255C45.2179 20.9979 43.8041 16.5629 41.0873 12.9391L45.0027 10.0036C48.3808 14.5094 50.1387 20.0238 49.9915 25.6534C49.8443 31.2831 47.8007 36.6981 44.1917 41.0212C40.5827 45.3444 35.6198 48.3224 30.107 49.4728C24.5942 50.6232 18.8545 49.8786 13.8177 47.3597C8.78093 44.8407 4.74216 40.695 2.35571 35.5941C-0.0307283 30.4932 -0.625037 24.7359 0.669071 19.2551C1.96318 13.7743 5.06989 8.89089 9.4859 5.39614Z" fill="#546659"/>
<path fill-rule="evenodd" clip-rule="evenodd" d="M40.9496 2.28429e-05L43 1.99999L43 2L26.6318 29.5357L26.4787 29.4447L26.4655 29.4666L24.0851 28.0219L23 27.3768L23.0058 27.3668L19.6265 25.3159L21.6389 22L24.9632 24.0176L36.6622 4.00002H33V2.28281e-05L38.9999 2.29756e-05L39 -1.92405e-06L39 2.29357e-05L40.9496 2.28429e-05Z" fill="#546659"/>
</svg>
