<svg width="50" height="50" viewBox="0 0 50 50" fill="none" xmlns="http://www.w3.org/2000/svg">
<path fill-rule="evenodd" clip-rule="evenodd" d="M9.48589 5.39614C13.9019 1.90139 19.3685 0 25 0H27V13H23V4.99335C19.1879 5.37439 15.5487 6.83885 12.5227 9.23352C8.97114 12.0442 6.47256 15.9717 5.43177 20.3796C4.39098 24.7876 4.86895 29.4179 6.78826 33.5203C8.70756 37.6227 11.9558 40.957 16.0066 42.9829C20.0575 45.0087 24.6737 45.6076 29.1074 44.6824C33.541 43.7571 37.5325 41.3621 40.435 37.8851C43.3375 34.4082 44.9811 30.0532 45.0995 25.5255C45.2179 20.9979 43.8041 16.5629 41.0873 12.9391L45.0027 10.0036C48.3808 14.5094 50.1387 20.0238 49.9915 25.6534C49.8443 31.2831 47.8007 36.6981 44.1917 41.0212C40.5827 45.3444 35.6198 48.3224 30.107 49.4728C24.5942 50.6232 18.8545 49.8786 13.8177 47.3597C8.78093 44.8407 4.74216 40.695 2.35571 35.5941C-0.0307283 30.4932 -0.625037 24.7359 0.669071 19.2551C1.96318 13.7743 5.06989 8.89089 9.48589 5.39614Z" fill="#546659"/>
<path fill-rule="evenodd" clip-rule="evenodd" d="M40.9496 2.28429e-05L43 1.99999L43 2L26.6318 29.5357L26.4787 29.4447L26.4655 29.4666L24.0851 28.0219L23 27.3768L23.0058 27.3668L19.6265 25.3159L21.6389 22L24.9632 24.0176L36.6622 4.00002H33V2.28281e-05L38.9999 2.29756e-05L39 -1.92405e-06L39 2.29357e-05L40.9496 2.28429e-05Z" fill="#546659"/>
</svg>
